<svg width="448" height="197" viewBox="0 0 448 197" fill="none" xmlns="http://www.w3.org/2000/svg">
<g clip-path="url(#clip0_24_10)">
<path d="M23.4725 82.1504C23.9867 82.1454 24.501 82.1404 25.0308 82.1353C25.5908 82.1331 26.1508 82.1309 26.7278 82.1286C27.5858 82.1241 27.5858 82.1241 28.461 82.1196C29.6743 82.1147 30.8876 82.1113 32.1009 82.1093C33.9584 82.1042 35.8156 82.0881 37.673 82.0717C38.8498 82.0683 40.0266 82.0655 41.2034 82.0635C41.7603 82.0571 42.3171 82.0507 42.8909 82.044C43.6696 82.0464 43.6696 82.0464 44.4641 82.0488C44.9202 82.0469 45.3763 82.045 45.8463 82.043C47.4041 82.2843 48.087 82.64 49.163 83.7957C49.4226 85.1713 49.4226 85.1713 49.4223 86.8461C49.4275 87.4732 49.4327 88.1003 49.4381 88.7465C49.4339 89.4247 49.4296 90.1029 49.4252 90.8017C49.4291 91.5051 49.434 92.2084 49.4401 92.9118C49.454 94.7641 49.4569 96.6163 49.4562 98.4687C49.455 101.43 49.4624 104.391 49.4851 107.352C49.4902 108.384 49.4855 109.417 49.4806 110.449C49.4841 111.079 49.4877 111.71 49.4914 112.359C49.4909 112.913 49.4904 113.466 49.4899 114.037C49.8266 116.66 51.1698 118.241 53.1641 119.871C58.2279 124.183 63.1869 129.137 64.7771 135.843C64.9911 138.636 64.9592 141.421 64.9295 144.219C64.9266 145.03 64.9244 145.841 64.9228 146.652C64.9169 148.774 64.9016 150.896 64.8843 153.018C64.8682 155.188 64.8612 157.358 64.8533 159.528C64.8366 163.777 64.81 168.027 64.7771 172.276C64.4798 172.27 64.1826 172.264 63.8764 172.258C60.7692 172.2 57.6621 172.161 54.5544 172.133C53.3964 172.12 52.2383 172.102 51.0804 172.079C49.4111 172.048 47.7423 172.033 46.0727 172.022C45.5591 172.008 45.0455 171.995 44.5163 171.981C41.1712 171.979 38.6464 172.526 36.1512 174.878C34.9283 176.901 34.6786 179.073 34.3255 181.376C34.2576 181.8 34.1898 182.225 34.1199 182.662C33.9046 184.014 33.6941 185.366 33.4838 186.719C33.3384 187.637 33.1927 188.555 33.0467 189.474C32.69 191.721 32.3376 193.969 31.9874 196.217C28.3481 196.27 24.7088 196.307 21.0691 196.332C19.8318 196.342 18.5945 196.356 17.3572 196.374C15.5755 196.4 13.7942 196.411 12.0123 196.421C11.4619 196.431 10.9115 196.442 10.3444 196.453C7.02114 196.454 5.02741 196.106 2.32062 194.135C0.658698 192.307 0.175758 190.685 0.162142 188.246C0.158418 187.787 0.154693 187.329 0.150856 186.856C0.149457 186.354 0.148057 185.852 0.146616 185.335C0.143195 184.805 0.139775 184.275 0.136252 183.729C0.12597 181.969 0.119906 180.21 0.114722 178.45C0.1126 177.848 0.11048 177.245 0.108295 176.624C0.0974276 173.429 0.08999 170.234 0.0851147 167.038C0.079384 163.755 0.0615153 160.472 0.0407859 157.188C0.0270951 154.651 0.022813 152.113 0.0209513 149.575C0.0184334 148.366 0.012429 147.157 0.00271313 145.948C-0.0709611 136.165 1.34991 128.418 4.98803 119.285C5.25249 118.612 5.51683 117.939 5.78106 117.266C8.2676 110.968 10.8711 104.716 13.4782 98.4665C13.6803 97.9812 13.8824 97.496 14.0906 96.9961C20.2739 82.1754 20.2739 82.1754 23.4725 82.1504Z" fill="#390099"/>
<path d="M22.6056 31.5714C23.1138 31.5712 23.622 31.571 24.1456 31.5707C25.8156 31.5718 27.4854 31.584 29.1553 31.5962C30.317 31.5991 31.4787 31.6014 32.6404 31.6029C35.6908 31.6089 38.7411 31.6242 41.7915 31.6415C44.907 31.6575 48.0225 31.6646 51.1381 31.6725C57.2459 31.6892 63.3536 31.7166 69.4613 31.7487C69.4613 36.3861 69.4613 41.0235 69.4613 45.8014C67.2285 45.8014 64.9957 45.8014 62.6952 45.8014C60.5252 56.6514 64.1176 65.6513 69.3047 74.9762C69.5496 75.4284 69.7945 75.8806 70.0468 76.3465C70.2629 76.7242 70.4789 77.102 70.7015 77.4911C71.1453 79.0107 70.6731 79.8131 69.9818 81.1934C68.1453 81.3668 67.1937 81.447 65.694 80.311C53.3267 65.8243 53.3267 65.8243 53.3267 59.3336C51.2657 59.3336 49.2046 59.3336 47.0811 59.3336C47.0811 60.7077 47.0811 62.0817 47.0811 63.4974C38.6651 63.4974 30.2491 63.4974 21.578 63.4974C20.891 61.2646 20.204 59.0318 19.4961 56.7313C17.6758 53.7668 15.4317 52.5843 12.2096 51.5266C10.2883 51.2318 8.39344 51.1659 6.45186 51.1362C5.95169 51.1208 5.45152 51.1054 4.93619 51.0895C3.71731 51.0531 2.49893 51.0254 1.27968 51.0061C1.03746 46.2739 3.13185 42.5099 6.0615 38.8726C10.5732 34.0708 16.1165 31.4945 22.6056 31.5714Z" fill="#390099"/>
<path d="M75.1865 89.0004C76.5283 88.8418 77.7181 88.7826 79.0575 88.8053C79.4121 88.7992 79.7666 88.7932 80.132 88.787C82.7041 88.8021 82.7041 88.8021 83.8755 89.6047C84.8363 90.9582 84.7538 91.9391 84.759 93.5914C84.7648 94.2234 84.7705 94.8554 84.7765 95.5066C84.775 96.208 84.7734 96.9094 84.7717 97.6108C84.7756 98.3486 84.7801 99.0864 84.7853 99.8241C84.7974 101.828 84.8001 103.833 84.8012 105.837C84.8042 107.932 84.8163 110.027 84.8276 112.121C84.8476 116.089 84.8602 120.057 84.8698 124.025C84.8872 131.137 84.9172 138.249 84.9499 145.361C84.9611 147.859 84.9691 150.356 84.9743 152.854C84.978 154.404 84.9836 155.955 84.9897 157.505C84.9921 158.226 84.9936 158.948 84.9941 159.669C84.9949 160.65 84.9992 161.631 85.0036 162.612C85.0049 163.162 85.0062 163.713 85.0076 164.279C84.937 165.487 84.937 165.487 85.5959 166.03C85.7364 167.701 85.8281 169.367 85.911 171.042C85.8546 172.853 85.8546 172.853 86.6368 174.358C87.6159 174.411 88.5969 174.428 89.5773 174.431C90.2062 174.435 90.8351 174.439 91.483 174.442C92.1682 174.445 92.8535 174.447 93.5595 174.449C94.2656 174.454 94.9717 174.46 95.6777 174.467C98.6827 174.494 101.688 174.519 104.693 174.527C106.529 174.532 108.365 174.548 110.202 174.57C111.242 174.579 112.282 174.578 113.322 174.576C114.273 174.589 114.273 174.589 115.243 174.602C115.801 174.605 116.359 174.608 116.933 174.611C118.386 174.878 118.386 174.878 119.59 175.611C120.467 176.96 120.467 176.96 120.988 182.165C93.3353 182.165 65.6827 182.165 37.1922 182.165C37.7126 176.96 37.7126 176.96 38.5862 175.611C40.1427 174.667 41.1743 174.609 42.9931 174.594C43.639 174.584 44.2849 174.573 44.9503 174.563C45.6524 174.562 46.3546 174.561 47.0567 174.561C47.7772 174.553 48.4977 174.544 49.2182 174.535C51.1109 174.512 53.0034 174.502 54.8962 174.494C56.8291 174.484 58.7618 174.462 60.6946 174.441C64.4843 174.402 68.2739 174.376 72.0637 174.358C72.0892 173.768 72.1147 173.179 72.1409 172.573C72.18 171.801 72.2193 171.03 72.2588 170.259C72.2749 169.87 72.291 169.482 72.3076 169.082C72.4662 166.148 72.4662 166.148 73.6251 164.989C73.7862 163.644 73.7862 163.644 73.763 162.049C73.7673 161.423 73.7716 160.798 73.7761 160.154C73.7756 159.457 73.7751 158.76 73.7745 158.064C73.7776 157.333 73.7812 156.602 73.7853 155.871C73.793 154.295 73.7976 152.719 73.7997 151.143C73.8032 148.652 73.8145 146.162 73.8271 143.671C73.8526 138.383 73.8694 133.096 73.8853 127.808C73.9025 122.102 73.9212 116.396 73.9499 110.69C73.9621 108.213 73.9692 105.736 73.9726 103.259C73.9756 101.719 73.983 100.179 73.9915 98.6386C73.9945 97.9233 73.9958 97.2081 73.9952 96.4928C73.9946 95.5179 74.0009 94.543 74.0076 93.5682C74.0091 93.0221 74.0107 92.476 74.0122 91.9134C74.1455 90.5618 74.1455 90.5618 75.1865 89.0004Z" fill="#390099"/>
<path d="M36.1512 185.287C64.3191 185.287 92.4869 185.287 121.508 185.287C122.549 189.451 122.549 189.451 123.07 196.217C93.8714 196.217 64.673 196.217 34.5898 196.217C35.1051 192.61 35.6203 189.004 36.1512 185.287Z" fill="#390099"/>
<path d="M23.489 66.0241C24.0066 66.0208 24.5242 66.0175 25.0575 66.0141C25.6208 66.0135 26.1841 66.0129 26.7644 66.0123C27.3389 66.0106 27.9133 66.0088 28.5051 66.0071C29.7228 66.0044 30.9404 66.0032 32.1581 66.0033C34.0269 66.0021 35.8956 65.9927 37.7645 65.9828C38.9447 65.9813 40.1249 65.9803 41.3051 65.9798C42.1484 65.9742 42.1484 65.9742 43.0088 65.9684C43.7877 65.9708 43.7877 65.9708 44.5823 65.9733C45.2699 65.9722 45.2699 65.9722 45.9715 65.971C47.0811 66.0997 47.0811 66.0997 48.122 67.1407C48.2485 68.3495 48.2485 68.3495 48.242 69.8426C48.241 70.377 48.24 70.9114 48.2389 71.462C48.2294 72.3018 48.2294 72.3018 48.2196 73.1586C48.2193 73.7205 48.2189 74.2824 48.2186 74.8613C48.195 79.0385 48.195 79.0385 47.6016 79.632C46.7549 79.6806 45.9061 79.6931 45.058 79.691C44.5162 79.691 43.9744 79.691 43.4162 79.6909C42.8269 79.6882 42.2376 79.6856 41.6304 79.6828C41.0304 79.682 40.4304 79.6813 39.8122 79.6806C37.8871 79.6776 35.9619 79.6711 34.0368 79.6645C32.7353 79.6619 31.4338 79.6595 30.1323 79.6574C26.9339 79.6516 23.7355 79.6429 20.5371 79.632C20.5221 77.4742 20.5128 75.3164 20.5046 73.1586C20.5002 72.5424 20.4958 71.9261 20.4914 71.2912C20.4897 70.7058 20.488 70.1205 20.4863 69.5173C20.4835 68.975 20.4808 68.4326 20.478 67.8737C20.5817 65.6746 21.5345 66.0326 23.489 66.0241Z" fill="#390099"/>
<path d="M93.9234 0C95.2755 1.35205 95.2913 2.32811 95.6475 4.19629C96.6672 8.81039 98.1948 12.4151 102.251 15.0936C103.958 15.8718 105.687 16.5499 107.456 17.1755C107.456 17.519 107.456 17.8625 107.456 18.2165C107.11 18.3426 106.765 18.4687 106.409 18.5987C102.601 20.0441 99.8531 21.5116 97.707 25.068C96.1655 28.5115 95.3601 32.2631 94.4439 35.9125C94.1004 35.9125 93.7569 35.9125 93.4029 35.9125C93.3144 35.3972 93.2258 34.8819 93.1346 34.351C92.1485 28.8639 91.2057 24.7594 86.7609 21.1014C84.9329 19.8413 82.9859 18.9895 80.9117 18.2165C80.9117 17.873 80.9117 17.5294 80.9117 17.1755C81.3263 17.0299 81.7409 16.8843 82.1681 16.7343C86.8258 14.9721 89.2457 13.2175 91.4187 8.75041C92.5856 5.92828 93.2593 2.97364 93.9234 0Z" fill="#FFBD00"/>
<path d="M114.222 27.0645C114.394 27.0645 114.565 27.0645 114.742 27.0645C114.931 27.9118 114.931 27.9118 115.124 28.7763C115.3 29.5286 115.477 30.2809 115.653 31.033C115.735 31.4041 115.817 31.7751 115.901 32.1573C116.571 34.9659 117.499 37.3886 119.833 39.2569C122.139 40.4515 122.139 40.4515 124.631 41.1172C124.631 41.4607 124.631 41.8042 124.631 42.1581C124.211 42.3231 123.79 42.4882 123.356 42.6582C119.779 44.2204 117.71 45.4565 116.212 49.1255C115.579 51.1315 115.11 53.0976 114.742 55.1699C114.399 55.1699 114.055 55.1699 113.701 55.1699C113.613 54.7988 113.524 54.4278 113.433 54.0456C112.357 49.7931 111.313 46.2312 107.456 43.7195C106.256 43.1395 105.055 42.6455 103.812 42.1581C103.812 41.8146 103.812 41.4711 103.812 41.1172C104.114 41.0091 104.416 40.9011 104.727 40.7898C107.776 39.5874 110.048 38.3486 111.619 35.392C112.283 33.3469 112.826 31.3099 113.305 29.2155C113.701 27.5849 113.701 27.5849 114.222 27.0645Z" fill="#FFBD00"/>
<path d="M76.1054 31.0859C76.4892 31.0899 76.873 31.0939 77.2684 31.0981C77.844 31.0921 77.844 31.0921 78.4313 31.0859C81.3003 31.0964 81.3003 31.0964 82.4731 32.2691C82.5995 33.5735 82.5995 33.5735 82.593 35.1988C82.592 35.7802 82.591 36.3615 82.59 36.9605C82.5804 37.8748 82.5804 37.8748 82.5707 38.8076C82.5703 39.4191 82.57 40.0306 82.5696 40.6607C82.546 45.208 82.546 45.208 81.9526 45.8014C81.2601 45.8526 80.5651 45.8694 79.8707 45.8705C79.4521 45.8712 79.0334 45.8718 78.6021 45.8725C78.162 45.8705 77.7218 45.8685 77.2684 45.8664C76.8282 45.8684 76.3881 45.8705 75.9347 45.8725C75.516 45.8719 75.0974 45.8712 74.666 45.8705C74.2796 45.8699 73.8931 45.8693 73.495 45.8687C72.5841 45.8014 72.5841 45.8014 72.0637 45.2809C71.932 43.1264 71.9673 40.9657 71.9661 38.8076C71.9597 38.198 71.9533 37.5885 71.9468 36.9605C71.9458 36.3791 71.9448 35.7978 71.9437 35.1988C71.9416 34.6625 71.9394 34.1261 71.9372 33.5735C72.1961 30.9026 73.7899 31.0943 76.1054 31.0859Z" fill="#390099"/>
<path d="M90.2801 47.8833C90.6236 47.8833 90.9672 47.8833 91.3211 47.8833C91.4096 48.2664 91.4982 48.6495 91.5894 49.0442C92.5163 53.034 92.5163 53.034 94.9644 56.2108C96.1633 56.8438 97.3279 57.3046 98.6077 57.7722C98.6077 58.1157 98.6077 58.4592 98.6077 58.8131C98.3312 58.9272 98.0548 59.0413 97.77 59.1588C95.1284 60.3446 93.7172 61.3577 92.362 64.0179C91.778 65.5624 91.2653 67.1178 90.8006 68.7021C90.0251 67.2502 89.5182 65.8606 89.0765 64.2781C88.3654 62.1016 87.6117 61.054 85.5959 59.8541C84.2013 59.2086 84.2013 59.2086 82.9935 58.8131C83.6568 57.4866 84.1897 57.4061 85.5308 56.8289C87.4978 55.8629 88.4151 55.1941 89.2392 53.088C89.6552 51.3629 89.9912 49.6338 90.2801 47.8833Z" fill="#FFBD00"/>
<path d="M110.509 87.8779C109.292 87.8779 108.212 88.1172 107.269 88.5957C106.339 89.0605 105.553 89.7373 104.91 90.626C104.281 91.5146 103.803 92.5879 103.475 93.8457C103.146 95.1035 102.982 96.5186 102.982 98.0908C102.982 100.21 103.242 102.021 103.762 103.525C104.295 105.016 105.115 106.157 106.223 106.95C107.33 107.729 108.759 108.119 110.509 108.119C111.726 108.119 112.942 107.982 114.159 107.709C115.39 107.436 116.723 107.046 118.158 106.54V111.872C116.832 112.419 115.526 112.809 114.241 113.041C112.956 113.287 111.514 113.41 109.914 113.41C106.824 113.41 104.281 112.774 102.285 111.503C100.303 110.218 98.833 108.427 97.876 106.13C96.9189 103.819 96.4404 101.126 96.4404 98.0498C96.4404 95.7803 96.748 93.7021 97.3633 91.8154C97.9785 89.9287 98.8809 88.2949 100.07 86.9141C101.26 85.5332 102.729 84.4668 104.479 83.7148C106.229 82.9629 108.239 82.5869 110.509 82.5869C111.999 82.5869 113.489 82.7783 114.979 83.1611C116.483 83.5303 117.919 84.043 119.286 84.6992L117.235 89.8672C116.114 89.334 114.986 88.8691 113.852 88.4727C112.717 88.0762 111.603 87.8779 110.509 87.8779ZM151.771 97.9678C151.771 100.278 151.483 102.384 150.909 104.284C150.335 106.171 149.46 107.798 148.284 109.165C147.122 110.532 145.646 111.585 143.854 112.323C142.063 113.048 139.944 113.41 137.497 113.41C135.05 113.41 132.931 113.048 131.14 112.323C129.349 111.585 127.865 110.532 126.689 109.165C125.527 107.798 124.659 106.164 124.085 104.264C123.511 102.363 123.224 100.251 123.224 97.9268C123.224 94.8232 123.729 92.123 124.741 89.8262C125.767 87.5156 127.339 85.7246 129.458 84.4531C131.577 83.1816 134.271 82.5459 137.538 82.5459C140.792 82.5459 143.465 83.1816 145.557 84.4531C147.662 85.7246 149.221 87.5156 150.232 89.8262C151.258 92.1367 151.771 94.8506 151.771 97.9678ZM129.889 97.9678C129.889 100.06 130.148 101.864 130.668 103.382C131.201 104.886 132.028 106.048 133.149 106.868C134.271 107.675 135.72 108.078 137.497 108.078C139.302 108.078 140.765 107.675 141.886 106.868C143.007 106.048 143.82 104.886 144.326 103.382C144.846 101.864 145.105 100.06 145.105 97.9678C145.105 94.8232 144.518 92.3486 143.342 90.5439C142.166 88.7393 140.231 87.8369 137.538 87.8369C135.747 87.8369 134.284 88.2471 133.149 89.0674C132.028 89.874 131.201 91.0361 130.668 92.5537C130.148 94.0576 129.889 95.8623 129.889 97.9678ZM184.583 113H176.503L163.46 90.3184H163.275C163.33 91.2617 163.378 92.2119 163.419 93.1689C163.46 94.126 163.501 95.083 163.542 96.04C163.583 96.9834 163.624 97.9336 163.665 98.8906V113H157.984V83.0176H166.003L179.025 105.474H179.169C179.142 104.544 179.107 103.621 179.066 102.705C179.025 101.789 178.984 100.873 178.943 99.957C178.916 99.041 178.889 98.125 178.861 97.209V83.0176H184.583V113ZM209.849 104.674C209.849 106.451 209.418 107.996 208.557 109.309C207.695 110.621 206.438 111.633 204.783 112.344C203.143 113.055 201.146 113.41 198.795 113.41C197.756 113.41 196.737 113.342 195.739 113.205C194.755 113.068 193.805 112.87 192.889 112.61C191.986 112.337 191.125 112.002 190.305 111.605V105.699C191.727 106.328 193.203 106.896 194.734 107.401C196.266 107.907 197.783 108.16 199.287 108.16C200.326 108.16 201.16 108.023 201.789 107.75C202.432 107.477 202.896 107.101 203.184 106.622C203.471 106.144 203.614 105.597 203.614 104.981C203.614 104.229 203.361 103.587 202.855 103.054C202.35 102.521 201.652 102.021 200.764 101.557C199.889 101.092 198.897 100.593 197.79 100.06C197.093 99.7314 196.334 99.335 195.514 98.8701C194.693 98.3916 193.914 97.8105 193.176 97.127C192.438 96.4434 191.829 95.6162 191.351 94.6455C190.886 93.6611 190.653 92.4854 190.653 91.1182C190.653 89.3271 191.063 87.7959 191.884 86.5244C192.704 85.2529 193.873 84.2822 195.391 83.6123C196.922 82.9287 198.727 82.5869 200.805 82.5869C202.363 82.5869 203.847 82.7715 205.255 83.1406C206.677 83.4961 208.16 84.0156 209.705 84.6992L207.654 89.6416C206.273 89.0811 205.036 88.6504 203.942 88.3496C202.849 88.0352 201.734 87.8779 200.6 87.8779C199.807 87.8779 199.13 88.0078 198.569 88.2676C198.009 88.5137 197.585 88.8691 197.298 89.334C197.011 89.7852 196.867 90.3115 196.867 90.9131C196.867 91.624 197.072 92.2256 197.482 92.7178C197.906 93.1963 198.535 93.6611 199.369 94.1123C200.217 94.5635 201.27 95.0898 202.527 95.6914C204.059 96.416 205.364 97.1748 206.444 97.9678C207.538 98.7471 208.379 99.6699 208.967 100.736C209.555 101.789 209.849 103.102 209.849 104.674ZM228.019 87.8779C226.802 87.8779 225.722 88.1172 224.778 88.5957C223.849 89.0605 223.062 89.7373 222.42 90.626C221.791 91.5146 221.312 92.5879 220.984 93.8457C220.656 95.1035 220.492 96.5186 220.492 98.0908C220.492 100.21 220.752 102.021 221.271 103.525C221.805 105.016 222.625 106.157 223.732 106.95C224.84 107.729 226.269 108.119 228.019 108.119C229.235 108.119 230.452 107.982 231.669 107.709C232.899 107.436 234.232 107.046 235.668 106.54V111.872C234.342 112.419 233.036 112.809 231.751 113.041C230.466 113.287 229.023 113.41 227.424 113.41C224.334 113.41 221.791 112.774 219.795 111.503C217.812 110.218 216.343 108.427 215.386 106.13C214.429 103.819 213.95 101.126 213.95 98.0498C213.95 95.7803 214.258 93.7021 214.873 91.8154C215.488 89.9287 216.391 88.2949 217.58 86.9141C218.77 85.5332 220.239 84.4668 221.989 83.7148C223.739 82.9629 225.749 82.5869 228.019 82.5869C229.509 82.5869 230.999 82.7783 232.489 83.1611C233.993 83.5303 235.429 84.043 236.796 84.6992L234.745 89.8672C233.624 89.334 232.496 88.8691 231.361 88.4727C230.227 88.0762 229.112 87.8779 228.019 87.8779ZM242.066 113V83.0176H248.424V113H242.066ZM273.238 113H255.971V83.0176H273.238V88.2266H262.328V94.8096H272.479V100.019H262.328V107.75H273.238V113ZM306.112 113H298.032L284.989 90.3184H284.805C284.859 91.2617 284.907 92.2119 284.948 93.1689C284.989 94.126 285.03 95.083 285.071 96.04C285.112 96.9834 285.153 97.9336 285.194 98.8906V113H279.514V83.0176H287.532L300.555 105.474H300.698C300.671 104.544 300.637 103.621 300.596 102.705C300.555 101.789 300.514 100.873 300.473 99.957C300.445 99.041 300.418 98.125 300.391 97.209V83.0176H306.112V113ZM325.246 113H318.889V88.3086H310.747V83.0176H333.388V88.3086H325.246V113ZM338.002 113V83.0176H344.359V113H338.002ZM379.12 97.9678C379.12 100.278 378.833 102.384 378.259 104.284C377.685 106.171 376.81 107.798 375.634 109.165C374.472 110.532 372.995 111.585 371.204 112.323C369.413 113.048 367.294 113.41 364.847 113.41C362.399 113.41 360.28 113.048 358.489 112.323C356.698 111.585 355.215 110.532 354.039 109.165C352.877 107.798 352.009 106.164 351.435 104.264C350.86 102.363 350.573 100.251 350.573 97.9268C350.573 94.8232 351.079 92.123 352.091 89.8262C353.116 87.5156 354.688 85.7246 356.808 84.4531C358.927 83.1816 361.62 82.5459 364.888 82.5459C368.142 82.5459 370.814 83.1816 372.906 84.4531C375.012 85.7246 376.57 87.5156 377.582 89.8262C378.607 92.1367 379.12 94.8506 379.12 97.9678ZM357.238 97.9678C357.238 100.06 357.498 101.864 358.018 103.382C358.551 104.886 359.378 106.048 360.499 106.868C361.62 107.675 363.069 108.078 364.847 108.078C366.651 108.078 368.114 107.675 369.235 106.868C370.356 106.048 371.17 104.886 371.676 103.382C372.195 101.864 372.455 100.06 372.455 97.9678C372.455 94.8232 371.867 92.3486 370.691 90.5439C369.516 88.7393 367.581 87.8369 364.888 87.8369C363.097 87.8369 361.634 88.2471 360.499 89.0674C359.378 89.874 358.551 91.0361 358.018 92.5537C357.498 94.0576 357.238 95.8623 357.238 97.9678ZM409.738 83.0176V102.418C409.738 104.482 409.28 106.349 408.364 108.017C407.462 109.671 406.088 110.983 404.242 111.954C402.41 112.925 400.1 113.41 397.311 113.41C393.346 113.41 390.324 112.398 388.246 110.375C386.168 108.352 385.129 105.672 385.129 102.336V83.0176H391.466V101.372C391.466 103.847 391.972 105.583 392.983 106.581C393.995 107.579 395.492 108.078 397.475 108.078C398.869 108.078 399.997 107.839 400.858 107.36C401.733 106.882 402.376 106.144 402.786 105.146C403.196 104.147 403.401 102.876 403.401 101.331V83.0176H409.738ZM434.778 104.674C434.778 106.451 434.348 107.996 433.486 109.309C432.625 110.621 431.367 111.633 429.713 112.344C428.072 113.055 426.076 113.41 423.725 113.41C422.686 113.41 421.667 113.342 420.669 113.205C419.685 113.068 418.734 112.87 417.818 112.61C416.916 112.337 416.055 112.002 415.234 111.605V105.699C416.656 106.328 418.133 106.896 419.664 107.401C421.195 107.907 422.713 108.16 424.217 108.16C425.256 108.16 426.09 108.023 426.719 107.75C427.361 107.477 427.826 107.101 428.113 106.622C428.4 106.144 428.544 105.597 428.544 104.981C428.544 104.229 428.291 103.587 427.785 103.054C427.279 102.521 426.582 102.021 425.693 101.557C424.818 101.092 423.827 100.593 422.72 100.06C422.022 99.7314 421.264 99.335 420.443 98.8701C419.623 98.3916 418.844 97.8105 418.105 97.127C417.367 96.4434 416.759 95.6162 416.28 94.6455C415.815 93.6611 415.583 92.4854 415.583 91.1182C415.583 89.3271 415.993 87.7959 416.813 86.5244C417.634 85.2529 418.803 84.2822 420.32 83.6123C421.852 82.9287 423.656 82.5869 425.734 82.5869C427.293 82.5869 428.776 82.7715 430.185 83.1406C431.606 83.4961 433.09 84.0156 434.635 84.6992L432.584 89.6416C431.203 89.0811 429.966 88.6504 428.872 88.3496C427.778 88.0352 426.664 87.8779 425.529 87.8779C424.736 87.8779 424.06 88.0078 423.499 88.2676C422.938 88.5137 422.515 88.8691 422.228 89.334C421.94 89.7852 421.797 90.3115 421.797 90.9131C421.797 91.624 422.002 92.2256 422.412 92.7178C422.836 93.1963 423.465 93.6611 424.299 94.1123C425.146 94.5635 426.199 95.0898 427.457 95.6914C428.988 96.416 430.294 97.1748 431.374 97.9678C432.468 98.7471 433.309 99.6699 433.896 100.736C434.484 101.789 434.778 103.102 434.778 104.674ZM110.509 135.878C109.292 135.878 108.212 136.117 107.269 136.596C106.339 137.061 105.553 137.737 104.91 138.626C104.281 139.515 103.803 140.588 103.475 141.846C103.146 143.104 102.982 144.519 102.982 146.091C102.982 148.21 103.242 150.021 103.762 151.525C104.295 153.016 105.115 154.157 106.223 154.95C107.33 155.729 108.759 156.119 110.509 156.119C111.726 156.119 112.942 155.982 114.159 155.709C115.39 155.436 116.723 155.046 118.158 154.54V159.872C116.832 160.419 115.526 160.809 114.241 161.041C112.956 161.287 111.514 161.41 109.914 161.41C106.824 161.41 104.281 160.774 102.285 159.503C100.303 158.218 98.833 156.427 97.876 154.13C96.9189 151.819 96.4404 149.126 96.4404 146.05C96.4404 143.78 96.748 141.702 97.3633 139.815C97.9785 137.929 98.8809 136.295 100.07 134.914C101.26 133.533 102.729 132.467 104.479 131.715C106.229 130.963 108.239 130.587 110.509 130.587C111.999 130.587 113.489 130.778 114.979 131.161C116.483 131.53 117.919 132.043 119.286 132.699L117.235 137.867C116.114 137.334 114.986 136.869 113.852 136.473C112.717 136.076 111.603 135.878 110.509 135.878ZM124.557 161V131.018H130.914V155.75H143.075V161H124.557ZM165.572 161H148.305V131.018H165.572V136.227H154.662V142.81H164.813V148.019H154.662V155.75H165.572V161ZM190.202 161L188.028 153.863H177.098L174.924 161H168.074L178.656 130.895H186.429L197.052 161H190.202ZM186.511 148.531L184.337 141.559C184.2 141.094 184.016 140.499 183.783 139.774C183.564 139.036 183.339 138.291 183.106 137.539C182.888 136.773 182.71 136.11 182.573 135.55C182.437 136.11 182.245 136.808 181.999 137.642C181.767 138.462 181.541 139.241 181.322 139.979C181.104 140.718 180.946 141.244 180.851 141.559L178.697 148.531H186.511ZM227.444 161H219.364L206.321 138.318H206.137C206.191 139.262 206.239 140.212 206.28 141.169C206.321 142.126 206.362 143.083 206.403 144.04C206.444 144.983 206.485 145.934 206.526 146.891V161H200.846V131.018H208.864L221.887 153.474H222.03C222.003 152.544 221.969 151.621 221.928 150.705C221.887 149.789 221.846 148.873 221.805 147.957C221.777 147.041 221.75 146.125 221.723 145.209V131.018H227.444V161ZM252.279 161H235.012V131.018H252.279V136.227H241.369V142.81H251.521V148.019H241.369V155.75H252.279V161ZM267.291 131.018C270.012 131.018 272.254 131.346 274.018 132.002C275.795 132.658 277.114 133.649 277.976 134.976C278.837 136.302 279.268 137.977 279.268 140C279.268 141.367 279.008 142.563 278.488 143.589C277.969 144.614 277.285 145.482 276.438 146.193C275.59 146.904 274.674 147.485 273.689 147.937L282.508 161H275.453L268.296 149.495H264.912V161H258.555V131.018H267.291ZM266.84 136.227H264.912V144.327H266.963C269.068 144.327 270.572 143.979 271.475 143.281C272.391 142.57 272.849 141.531 272.849 140.164C272.849 138.742 272.356 137.73 271.372 137.129C270.401 136.527 268.891 136.227 266.84 136.227ZM303.979 152.674C303.979 154.451 303.549 155.996 302.688 157.309C301.826 158.621 300.568 159.633 298.914 160.344C297.273 161.055 295.277 161.41 292.926 161.41C291.887 161.41 290.868 161.342 289.87 161.205C288.886 161.068 287.936 160.87 287.02 160.61C286.117 160.337 285.256 160.002 284.436 159.605V153.699C285.857 154.328 287.334 154.896 288.865 155.401C290.396 155.907 291.914 156.16 293.418 156.16C294.457 156.16 295.291 156.023 295.92 155.75C296.562 155.477 297.027 155.101 297.314 154.622C297.602 154.144 297.745 153.597 297.745 152.981C297.745 152.229 297.492 151.587 296.986 151.054C296.48 150.521 295.783 150.021 294.895 149.557C294.02 149.092 293.028 148.593 291.921 148.06C291.224 147.731 290.465 147.335 289.645 146.87C288.824 146.392 288.045 145.811 287.307 145.127C286.568 144.443 285.96 143.616 285.481 142.646C285.017 141.661 284.784 140.485 284.784 139.118C284.784 137.327 285.194 135.796 286.015 134.524C286.835 133.253 288.004 132.282 289.521 131.612C291.053 130.929 292.857 130.587 294.936 130.587C296.494 130.587 297.978 130.771 299.386 131.141C300.808 131.496 302.291 132.016 303.836 132.699L301.785 137.642C300.404 137.081 299.167 136.65 298.073 136.35C296.979 136.035 295.865 135.878 294.73 135.878C293.938 135.878 293.261 136.008 292.7 136.268C292.14 136.514 291.716 136.869 291.429 137.334C291.142 137.785 290.998 138.312 290.998 138.913C290.998 139.624 291.203 140.226 291.613 140.718C292.037 141.196 292.666 141.661 293.5 142.112C294.348 142.563 295.4 143.09 296.658 143.691C298.189 144.416 299.495 145.175 300.575 145.968C301.669 146.747 302.51 147.67 303.098 148.736C303.686 149.789 303.979 151.102 303.979 152.674Z" fill="#390099"/>
</g>
<defs>
<clipPath id="clip0_24_10">
<rect width="448" height="197" fill="white"/>
</clipPath>
</defs>
</svg>
